<?xml version="1.0" encoding="utf-8"?>
<!-- Generator: Adobe Illustrator 17.0.2, SVG Export Plug-In . SVG Version: 6.00 Build 0)  -->
<!DOCTYPE svg PUBLIC "-//W3C//DTD SVG 1.1//EN" "http://www.w3.org/Graphics/SVG/1.1/DTD/svg11.dtd">
<svg version="1.1" id="Layer_1" xmlns="http://www.w3.org/2000/svg" xmlns:xlink="http://www.w3.org/1999/xlink" x="0px" y="0px"
	 width="1330px" height="226px" viewBox="-481.307 -49.442 1330 226" enable-background="new -481.307 -49.442 1330 226"
	 xml:space="preserve">
<g>
	<path fill="#005F9D" d="M-261.059,83.521h-62.728c1.908,12.719,9.54,20.77,28.18,20.77c7.639,0,17.381-2.113,26.284-4.867
		l2.97,18.653c-11.021,2.963-22.464,5.08-31.581,5.08c-33.9,0-49.582-20.975-49.582-46.623c0-24.365,16.314-47.256,45.774-47.256
		c27.126,0,41.319,19.285,41.319,43.448C-260.427,75.684-260.427,80.353-261.059,83.521z M-281.825,68.479
		c-1.059-12.289-8.268-20.339-20.335-20.339c-11.874,0-19.498,7.418-21.2,20.339H-281.825z"/>
	<path fill="#005F9D" d="M-241.782,121.462V-6.286h23.942v127.748H-241.782z"/>
	<path fill="#005F9D" d="M-150.249,123.153c-29.235,0-47.465-21.406-47.465-47.042c0-25.644,18.226-46.833,47.465-46.833
		c29.034,0,47.042,21.189,47.042,46.833C-103.207,101.751-121.211,123.153-150.249,123.153z M-150.249,47.713
		c-14.398,0-23.519,11.025-23.519,28.398c0,17.59,9.121,28.603,23.519,28.603c14.205,0,23.31-11.013,23.31-28.603
		C-126.935,58.734-136.044,47.713-150.249,47.713z"/>
	<path fill="#005F9D" d="M-39.889,123.153c-32,0-51.071-20.975-51.071-46.623c0-25.633,19.075-47.256,51.071-47.256
		c11.017,0,22.247,4.029,30.302,9.109l-7.849,16.745c-6.988-3.808-14.402-6.356-22.872-6.356c-15.054,0-26.92,9.318-26.92,27.544
		c0,16.958,12.929,27.122,28.188,27.122c8.05,0,16.097-2.536,22.666-6.356l6.782,16.954
		C-17.642,119.128-28.872,123.153-39.889,123.153z"/>
	<path fill="#005F9D" d="M6.087,121.462v-90.49h24.159v90.49H6.087z"/>
	<path fill="#005F9D" d="M6.087,16.489V-6.546h24.159v23.034C30.246,16.489,6.087,16.489,6.087,16.489z"/>
	<path fill="#005F9D" d="M146.031,167.233h-26.129l26.249-57.648l-36.844-78.612h26.691l22.577,50.963l23.201-50.963h26.067
		L146.031,167.233z"/>
	<g>
		<path fill="#EF7622" d="M700.309,5.27h-4.238v12.041h-1.648V5.27H690.2V4.013h10.106L700.309,5.27L700.309,5.27z M716.398,17.307
			h-1.636V5.39H714.7l-4.572,11.917h-1.078L704.474,5.39h-0.058v11.917h-1.644V4.013h3.025l3.796,9.823h0.05l3.727-9.823h3.029
			V17.307z"/>
	</g>
	<polygon fill="#005F9D" points="-467.597,18.78 -408.929,97.555 -349.772,-32.563 -323.682,-32.563 -393.759,121.462 
		-417.336,121.462 	"/>
	<polygon fill="#A1CDEC" points="-442.791,2.284 -382.056,2.284 -378.158,10.133 -401.026,59.944 -389.245,9.757 -436.989,9.749 	
		"/>
	<polygon fill="#0F99D6" points="-471.638,-0.892 -464.98,-15.705 -385.996,-6.259 -459.376,-6.259 -404.726,67.781 
		-410.713,80.834 	"/>
	<path fill="#005F9D" d="M102.921,11.994c2.071,0,4.339,0.109,6.387,0.396V-8.636c-2.936-0.496-5.995-0.772-9.567-0.772
		c-26.276,0-38.992,12.987-38.992,40.749h-5.425L44.939,50.439h15.81v71.023h23.946V50.466v-0.027h6.391l10.528-19.098H84.695
		C84.695,13.747,90.415,11.994,102.921,11.994z"/>
	<g>
		<path fill="#EF7622" d="M288.62,128.376c-9.784,0-18.203-2.276-25.481-6.367v45.305h-25.706V29.417h24.799v9.101
			c8.19-7.054,17.745-10.92,30.713-10.92c25.253,0,44.134,20.704,44.134,49.594C337.074,105.171,317.056,128.376,288.62,128.376z
			 M286.573,48.074c-10.009,0-17.063,3.409-23.434,10.234v40.721c5.235,5.914,13.879,8.873,22.523,8.873
			c14.561,0,25.706-11.374,25.706-30.48C311.368,60.355,301.813,48.074,286.573,48.074z"/>
		<path fill="#EF7622" d="M425.338,126.558v-15.019c-9.555,9.559-22.748,16.838-35.261,16.838
			c-21.386,0-32.078-13.421-32.078-32.531V29.417h25.935v60.06c0,12.06,5.456,17.287,15.469,17.287
			c8.873,0,17.745-4.778,25.024-12.735V29.417h25.935v97.14C450.362,126.558,425.338,126.558,425.338,126.558z"/>
		<path fill="#EF7622" d="M475.607,126.558V-40.198h25.706v166.756H475.607z"/>
		<path fill="#EF7622" d="M558.407,128.376c-14.79,0-27.525-5.006-38.449-12.739L529.97,97.21
			c8.644,6.825,19.793,11.378,27.983,11.378c9.555,0,13.875-3.874,13.875-10.013c0-15.469-46.181-9.33-46.181-40.268
			c0-17.516,15.019-30.709,37.084-30.709c11.149,0,23.205,4.095,31.849,9.101l-7.961,18.881c-8.19-5.006-16.834-8.415-25.028-8.415
			c-8.644,0-12.739,4.095-12.739,9.097c0,14.336,47.093,8.873,47.093,41.179C595.944,115.184,580.018,128.376,558.407,128.376z"/>
		<path fill="#EF7622" d="M703.09,85.836h-67.339c2.044,13.65,10.238,22.294,30.255,22.294c8.19,0,18.656-2.276,28.211-5.235
			l3.188,20.021c-11.831,3.18-24.116,5.456-33.9,5.456c-36.401,0-53.235-22.523-53.235-50.048c0-26.16,17.516-50.734,49.14-50.734
			c29.119,0,44.359,20.704,44.359,46.639C703.768,77.421,703.768,82.42,703.09,85.836z M680.796,69.685
			c-1.14-13.196-8.872-21.844-21.84-21.844c-12.739,0-20.929,7.965-22.748,21.844H680.796z"/>
	</g>
	<g>
		<g>
			<polygon fill="#EF7622" points="757.139,141.86 734.694,70.022 727.644,85.86 645.096,85.86 645.096,78.05 722.576,78.05 
				735.974,47.95 754.685,107.831 774.26,-14.344 793.475,77.518 824.296,77.518 824.296,85.328 787.134,85.328 775.276,28.646 			
				"/>
		</g>
	</g>
	<polygon fill="#EF7622" points="816.819,81.443 816.819,70.166 827.922,75.804 839.024,81.443 827.922,87.077 816.819,92.716 	"/>
</g>
</svg>
